<svg xmlns:xlink="http://www.w3.org/1999/xlink" xmlns="http://www.w3.org/2000/svg" viewBox="0 0 409.89473684210526 123" preserveAspectRatio="xMidYMid meet" class="css-116ckqy" id="hgcdddea" width="409.89473684210526"  height="123" ><defs id="SvgjsDefs2109"></defs><g id="SvgjsG2110" featurekey="symbolContainer" transform="matrix(1,0,0,1,0,0)" fill="#111111"><rect xmlns="http://www.w3.org/2000/svg" width="132" height="123" rx="10" ry="10" fill="#111111"></rect></g><g id="SvgjsG2111" featurekey="uHI19F-0" transform="matrix(1.276456288091759,0,0,1.276456288091759,1.4467104820052121,-4.17352883329254)" fill="#FFFFFF"><g xmlns="http://www.w3.org/2000/svg" fill="#FFFFFF"><path d="M79.228,41.687C79.002,28.111,69.21,18.938,57.272,18.938H43.739c-11.833,0-21.766,8.752-21.955,22.778   c-3.602,0.553-7.249,3.745-7.249,7.67v18.1c0,4.28,3.298,7.764,7.351,7.764c0,0,0.577,0,1.97,0s1.777-1.461,1.777-1.799v-7.117   c3.708,10.386,13.641,17.841,25.286,17.841c10.863,0,20.233-6.491,24.452-15.795v5.024c0,0.329,0.536,1.846,1.999,1.846   s1.968,0,1.968,0c4.056,0,7.354-3.483,7.354-7.764v-18.1C86.691,45.41,82.899,42.147,79.228,41.687z M43.739,23.067h13.534   c9.477,0,18.106,8.049,18.106,19.139v4.104c-4.216-9.314-13.59-15.814-24.459-15.814c-11.646,0-21.579,7.457-25.286,17.844v-6.135   C25.633,32.68,33.046,23.067,43.739,23.067z M50.919,80.268c-12.646,0-22.934-10.286-22.934-22.929   c0-12.646,10.288-22.934,22.934-22.934c12.644,0,22.93,10.288,22.93,22.934C73.85,69.981,63.563,80.268,50.919,80.268z" fill="#FFFFFF"></path><path d="M50.917,48.133c-5.082,0-9.203,4.121-9.203,9.203c0,5.084,4.121,9.204,9.203,9.204c5.083,0,9.204-4.12,9.204-9.204   C60.121,52.254,56,48.133,50.917,48.133z M50.917,60.404c-1.694,0-3.067-1.373-3.067-3.068c0-1.693,1.373-3.068,3.067-3.068   s3.068,1.375,3.068,3.068C53.985,59.031,52.611,60.404,50.917,60.404z" fill="#FFFFFF"></path></g></g><g id="SvgjsG2112" featurekey="8FbbNb-0" transform="matrix(1.9277525728458575,0,0,1.9277525728458575,149.37825670315894,33.59256722389844)" fill="#111111"><path d="M6.12 10.28 c1.3733 0 2.36 0.58666 2.96 1.76 c0.30666 -0.56 0.72666 -0.99334 1.26 -1.3 s1.1133 -0.46 1.74 -0.46 c2.3866 0 3.5866 1.3733 3.6 4.12 l0 5.6 l-1.8 0 l0 -5.38 c0 -0.93334 -0.16666 -1.61 -0.5 -2.03 s-0.84668 -0.63 -1.54 -0.63 c-0.81334 0 -1.42 0.24666 -1.82 0.74 s-0.6 1.1733 -0.6 2.04 l0 5.26 l-1.8 0 l0 -5.1 c0 -1.12 -0.16 -1.89 -0.48 -2.31 s-0.82666 -0.63 -1.52 -0.63 c-0.74666 0 -1.3433 0.28666 -1.79 0.86 s-0.67 1.3 -0.67 2.18 l0 5 l-1.8 0 l0 -9.48 l1.68 0 l0 1.48 l0.04 0 c0.2 -0.46666 0.59666 -0.87 1.19 -1.21 s1.21 -0.51 1.85 -0.51 z M22.2 10.28 c1.2 0 2.15 0.27328 2.85 0.81994 s1.07 1.3067 1.11 2.28 l0 5.08 c0 0.48 0.02666 0.99334 0.08 1.54 l-1.6 0 c-0.04 -0.42666 -0.06 -0.90666 -0.06 -1.44 l-0.04 0 c-0.41334 0.61334 -0.89 1.0467 -1.43 1.3 s-1.17 0.38 -1.89 0.38 c-0.97334 0 -1.7633 -0.26 -2.37 -0.78 s-0.91 -1.2067 -0.91 -2.06 c0 -1.08 0.45334 -1.8967 1.36 -2.45 s2.1866 -0.83 3.84 -0.83 l1.34 0 l0 -0.34 c0 -0.64 -0.21 -1.1433 -0.63 -1.51 s-0.97 -0.55 -1.65 -0.55 c-0.50666 0 -0.95 0.07666 -1.33 0.23 s-0.83 0.43668 -1.35 0.85002 l-1.08 -1.12 c1.0267 -0.90666 2.28 -1.3733 3.76 -1.4 z M19.74 17.259999999999998 c0 1.0267 0.68002 1.54 2.04 1.54 c0.81334 0 1.4633 -0.24334 1.95 -0.73 s0.73666 -1.19 0.75 -2.11 l0 -0.52 l-1.02 0 c-1.1733 0 -2.0866 0.15 -2.74 0.45 s-0.98 0.75666 -0.98 1.37 z M38.28 4.880000000000001 l-0.000019531 15.12 l-1.8 0 l0 -1.36 l-0.04 0 c-0.34666 0.50666 -0.81666 0.9 -1.41 1.18 s-1.2233 0.42 -1.89 0.42 c-1.4267 -0.01334 -2.5834 -0.48668 -3.47 -1.42 s-1.3367 -2.12 -1.35 -3.56 c0 -1.4533 0.44334 -2.64 1.33 -3.56 s2.05 -1.3933 3.49 -1.42 c0.65334 0 1.28 0.14 1.88 0.42 s1.0733 0.67334 1.42 1.18 l0.04 0 l0 -7 l1.8 0 z M30.240000000000002 15.26 c0 0.97334 0.28666 1.7633 0.86 2.37 s1.3267 0.91666 2.26 0.93 c0.94666 0 1.7033 -0.30334 2.27 -0.91 s0.85 -1.4033 0.85 -2.39 c0 -0.97334 -0.28 -1.7633 -0.84 -2.37 s-1.3267 -0.91666 -2.3 -0.93 c-0.93334 0 -1.6833 0.30666 -2.25 0.92 s-0.85 1.4067 -0.85 2.38 z M45.68 10.28 c0.33334 0 0.6 0.04 0.8 0.12 l-0.08 1.94 c-0.34666 -0.09334 -0.64666 -0.14 -0.9 -0.14 c-1.7733 0 -2.6734 0.98666 -2.7 2.96 l0 4.84 l-1.8 0 l0 -9.48 l1.8 0 l0 1.46 l0.04 0 c0.24 -0.50666 0.62666 -0.91666 1.16 -1.23 s1.0933 -0.47 1.68 -0.47 z M50.2 10.52 l0 5.68 c0 0.74666 0.19666 1.3267 0.59 1.74 s0.91668 0.62 1.57 0.62 c0.84 0 1.49 -0.27666 1.95 -0.83 s0.69 -1.3033 0.69 -2.25 l0 -4.96 l1.8 0 l0 9.48 l-1.8 0 l0 -1.46 l-0.04 0 c-0.25334 0.53334 -0.66668 0.95 -1.24 1.25 s-1.2 0.45 -1.88 0.45 c-1.0533 0 -1.89 -0.32666 -2.51 -0.98 s-0.93 -1.5067 -0.93 -2.56 l0 -6.18 l1.8 0 z M63.879999999999995 10.28 c0.68 0 1.3133 0.13998 1.9 0.41998 s1.0533 0.67334 1.4 1.18 l0.04 0 l0 -1.36 l1.8 0 l0 9.48 c-0.01334 1.4 -0.49334 2.5466 -1.44 3.44 s-2.1934 1.3467 -3.74 1.36 c-1.96 0 -3.5066 -0.56666 -4.64 -1.7 l1.22 -1.52 c0.94666 1.0267 2.08 1.54 3.4 1.54 c1.1333 0 1.9833 -0.29 2.55 -0.87 s0.85 -1.37 0.85 -2.37 l0 -1.44 l-0.06 0 c-0.32 0.56 -0.78334 0.98 -1.39 1.26 s-1.2367 0.42 -1.89 0.42 c-1.3867 0 -2.5334 -0.46334 -3.44 -1.39 s-1.3667 -2.07 -1.38 -3.43 c0.01334 -1.52 0.47 -2.7334 1.37 -3.64 s2.05 -1.3667 3.45 -1.38 z M60.98 15.26 c0 0.94666 0.27662 1.7067 0.82996 2.28 s1.3167 0.87334 2.29 0.9 c0.96 0 1.7167 -0.28666 2.27 -0.86 s0.83668 -1.3467 0.85002 -2.32 c0 -0.98666 -0.28334 -1.78 -0.85 -2.38 s-1.33 -0.90666 -2.29 -0.92 c-0.94666 0 -1.7 0.31334 -2.26 0.94 s-0.84 1.4133 -0.84 2.36 z M75.53999999999999 10.28 c1.2 0 2.15 0.27328 2.85 0.81994 s1.07 1.3067 1.11 2.28 l0 5.08 c0 0.48 0.02666 0.99334 0.08 1.54 l-1.6 0 c-0.04 -0.42666 -0.06 -0.90666 -0.06 -1.44 l-0.04 0 c-0.41334 0.61334 -0.89 1.0467 -1.43 1.3 s-1.17 0.38 -1.89 0.38 c-0.97334 0 -1.7633 -0.26 -2.37 -0.78 s-0.91 -1.2067 -0.91 -2.06 c0 -1.08 0.45334 -1.8967 1.36 -2.45 s2.1866 -0.83 3.84 -0.83 l1.34 0 l0 -0.34 c0 -0.64 -0.21 -1.1433 -0.63 -1.51 s-0.97 -0.55 -1.65 -0.55 c-0.50666 0 -0.95 0.07666 -1.33 0.23 s-0.83 0.43668 -1.35 0.85002 l-1.08 -1.12 c1.0267 -0.90666 2.28 -1.3733 3.76 -1.4 z M73.08 17.259999999999998 c0 1.0267 0.68002 1.54 2.04 1.54 c0.81334 0 1.4633 -0.24334 1.95 -0.73 s0.73666 -1.19 0.75 -2.11 l0 -0.52 l-1.02 0 c-1.1733 0 -2.0866 0.15 -2.74 0.45 s-0.98 0.75666 -0.98 1.37 z M90.17999999999999 7.859999999999999 l-0.000019531 2.66 l2.58 0 l0 1.56 l-2.58 0 l0 4.56 c0 0.61334 0.08666 1.0867 0.26 1.42 s0.54 0.5 1.1 0.5 c0.53334 0 0.96 -0.09334 1.28 -0.28 l0 1.64 c-0.34666 0.18666 -0.89332 0.29332 -1.64 0.31998 c-0.72 0 -1.2767 -0.11 -1.67 -0.33 s-0.68 -0.52666 -0.86 -0.92 s-0.27 -1.01 -0.27 -1.85 l0 -5.06 l-2.08 0 l0 -1.56 l2.08 0 l0 -2.66 l1.8 0 z M96.88 10.52 l0 5.68 c0 0.74666 0.19666 1.3267 0.59 1.74 s0.91668 0.62 1.57 0.62 c0.84 0 1.49 -0.27666 1.95 -0.83 s0.69 -1.3033 0.69 -2.25 l0 -4.96 l1.8 0 l0 9.48 l-1.8 0 l0 -1.46 l-0.04 0 c-0.25334 0.53334 -0.66668 0.95 -1.24 1.25 s-1.2 0.45 -1.88 0.45 c-1.0533 0 -1.89 -0.32666 -2.51 -0.98 s-0.93 -1.5067 -0.93 -2.56 l0 -6.18 l1.8 0 z M111.16 10.28 c1.0667 0 1.9033 0.32 2.51 0.96 s0.91666 1.5 0.93 2.58 l0 6.18 l-1.8 0 l0 -5.66 c0 -0.73334 -0.19 -1.3133 -0.57 -1.74 s-0.91 -0.64 -1.59 -0.64 c-0.84 0 -1.49 0.28 -1.95 0.84 s-0.69 1.3067 -0.69 2.24 l0 4.96 l-1.8 0 l0 -9.48 l1.8 0 l0 1.46 l0.04 0 c0.25334 -0.53334 0.66334 -0.95 1.23 -1.25 s1.1967 -0.45 1.89 -0.45 z M121.66000000000001 10.28 c1.4533 0 2.5834 0.45664 3.39 1.37 s1.2167 2.17 1.23 3.77 l0 0.5 l-7.6 0 c0 0.77334 0.31 1.4233 0.93 1.95 s1.3767 0.79666 2.27 0.81 c0.98666 0 1.8533 -0.47334 2.6 -1.42 l1.36 1.04 c-1.0133 1.2933 -2.4134 1.94 -4.2 1.94 c-1.4533 0 -2.6234 -0.46334 -3.51 -1.39 s-1.3433 -2.1234 -1.37 -3.59 c0 -1.4133 0.45666 -2.59 1.37 -3.53 s2.09 -1.4233 3.53 -1.45 z M124.36000000000001 14.48 c-0.02666 -0.89334 -0.28 -1.5767 -0.76 -2.05 s-1.14 -0.71 -1.98 -0.71 c-0.56 0 -1.0633 0.13666 -1.51 0.41 s-0.79666 0.62668 -1.05 1.06 s-0.38 0.86334 -0.38 1.29 l5.68 0 z M131.64000000000001 10.28 c0.72 0 1.3633 0.13338 1.93 0.40004 s1.0033 0.65332 1.31 1.16 l-1.4 1.06 c-0.53334 -0.62666 -1.18 -0.94 -1.94 -0.94 c-0.45334 0 -0.83 0.1 -1.13 0.3 s-0.45 0.45334 -0.45 0.76 c0 0.66666 0.62 1.12 1.86 1.36 c1.2133 0.22666 2.07 0.56 2.57 1 s0.75 1.0667 0.75 1.88 c0 0.92 -0.35 1.6433 -1.05 2.17 s-1.6367 0.79666 -2.81 0.81 c-0.88 0 -1.6033 -0.13666 -2.17 -0.41 s-1.0567 -0.69668 -1.47 -1.27 l1.36 -1.12 c0.72 0.74666 1.4867 1.12 2.3 1.12 c0.53334 0 0.98668 -0.10666 1.36 -0.32 s0.56 -0.50668 0.56 -0.88002 c0 -0.65334 -0.6 -1.1067 -1.8 -1.36 c-1.3333 -0.26666 -2.23 -0.62332 -2.69 -1.07 s-0.69 -1.0233 -0.69 -1.73 c0 -0.88 0.34 -1.5833 1.02 -2.11 s1.54 -0.79666 2.58 -0.81 z" fill="#111111"></path></g></svg>